<?xml version="1.0" encoding="utf-8"?>
<!-- Generator: Adobe Illustrator 23.0.2, SVG Export Plug-In . SVG Version: 6.00 Build 0)  -->
<svg version="1.1" id="Layer_1" xmlns="http://www.w3.org/2000/svg" xmlns:xlink="http://www.w3.org/1999/xlink" x="0px" y="0px"
	 viewBox="0 0 659.1 377" style="enable-background:new 0 0 659.1 377;" xml:space="preserve">
<style type="text/css">
	.st0{fill:#474747;}
	.st1{fill:#5184C5;}
	.st2{fill:#FFFFFF;}
</style>
<path class="st0" d="M101.7,152.9h114.6v54l-14.2,5.2v-45l-86.3-0.3c0,25.6,0,51.1,0,76.7L76,257.9l0.3,11.2l389.5-141.8V71.4
	c76.5-21.3,144-27.6,193.3-14.4c-48.4,106.6-40.5,176.9-21.1,235.1L6.3,292.3l51-51v-44.1L101.7,152.9L101.7,152.9z"/>
<g>
	<path class="st0" d="M6.3,365v-49.3h22.1c5.7,0,10,1.5,12.9,4.4c2.2,2.2,3.3,5,3.3,8.3c0,4.9-2.3,8.5-7,11
		c6.5,2.2,9.8,6.2,9.8,12.1c0,4.3-1.6,7.7-4.9,10c-3.3,2.3-7.7,3.5-13.3,3.5H6.3z M14.9,336.5h11.8c2.9,0,5.1-0.6,6.8-1.7
		c1.7-1.2,2.5-2.9,2.5-5.1c0-2-0.8-3.5-2.3-4.6s-3.6-1.7-6.4-1.7H14.9V336.5z M14.9,357.3h14.4c3,0,5.3-0.6,7-1.8
		c1.7-1.2,2.5-2.9,2.5-5.1c0-4.4-3.4-6.6-10.1-6.6H14.9V357.3z"/>
	<path class="st0" d="M73.3,365.8c-5.4,0-10-1.8-13.6-5.4s-5.5-8.3-5.5-14c0-5.4,1.7-10,5.1-13.7c3.4-3.8,7.8-5.6,13-5.6
		c5.6,0,10,1.9,13.1,5.7c3.1,3.8,4.7,8.6,4.7,14.3c0,1,0,1.8-0.1,2.4H62.7c0.5,3,1.7,5.3,3.6,6.9c1.9,1.7,4.3,2.5,7.1,2.5
		c3.7,0,7-1.5,10.1-4.4l5,4.4C84.6,363.5,79.6,365.8,73.3,365.8z M62.6,343.8h19.1c-0.3-2.9-1.2-5.2-2.9-7c-1.6-1.8-3.8-2.7-6.6-2.7
		c-2.6,0-4.7,0.9-6.5,2.7C64.1,338.5,63,340.9,62.6,343.8z"/>
	<path class="st0" d="M111.5,365.7c-5.8,0-11.1-1.9-15.8-5.6l3.8-5.8c4,3.1,8.1,4.6,12.2,4.6c1.8,0,3.3-0.4,4.3-1.1s1.5-1.7,1.5-3.1
		c0-0.7-0.2-1.2-0.5-1.7c-0.4-0.5-1-1-1.9-1.4s-1.6-0.7-2.3-0.9c-0.6-0.2-1.6-0.5-3-0.9l-0.6-0.2c-1.3-0.4-2.4-0.7-3.3-1.1
		s-1.9-0.8-3.1-1.4c-1.1-0.6-2-1.3-2.7-2s-1.3-1.7-1.8-2.8c-0.5-1.1-0.7-2.4-0.7-3.8c0-3.4,1.3-6.2,3.8-8.2c2.5-2.1,5.7-3.1,9.5-3.1
		c4.8,0,9.4,1.4,13.7,4.2l-3.4,6.1c-3.9-2.3-7.4-3.5-10.5-3.5c-1.6,0-2.9,0.4-3.8,1.1s-1.4,1.6-1.4,2.8c0,0.8,0.4,1.5,1.2,2.2
		c0.8,0.7,1.6,1.1,2.5,1.4c0.8,0.3,2.1,0.8,4,1.4c0.1,0,0.2,0.1,0.4,0.1c0.1,0,0.3,0.1,0.4,0.1c1.6,0.5,3,1,4.2,1.5
		c1.1,0.5,2.3,1.2,3.6,2c1.2,0.8,2.2,1.9,2.9,3.1c0.7,1.2,1,2.7,1,4.3c0,3.8-1.3,6.6-3.9,8.7C118.9,364.7,115.6,365.7,111.5,365.7z"
		/>
	<path class="st0" d="M146.5,365.6c-7.1,0-10.7-3.6-10.7-10.9v-19.6H131v-7.3h4.7v-10.2h8.5v10.2h10v7.3h-10v18.2
		c0,3.1,1.5,4.6,4.6,4.6c1.8,0,3.6-0.4,5.3-1.3v7C151.9,365,149.3,365.6,146.5,365.6z"/>
	<path class="st0" d="M159.6,365l21.7-49.7h8L211,365h-9.2l-5-11.9h-23.3l-5.1,11.9H159.6z M176.8,345.4h17l-8.5-19.7L176.8,345.4z"
		/>
	<path class="st0" d="M231.4,365.8c-4.1,0-7.4-1.3-9.7-3.9s-3.5-6.1-3.5-10.4v-23.7h8.5v21.1c0,2.9,0.7,5.2,2.1,6.7
		c1.4,1.6,3.3,2.4,5.9,2.4c2.5,0,4.5-0.8,6.1-2.5c1.5-1.6,2.3-3.9,2.3-6.8v-21h8.5V365H243v-5.8C240,363.6,236.1,365.8,231.4,365.8z
		"/>
	<path class="st0" d="M274.7,365.6c-7.1,0-10.7-3.6-10.7-10.9v-19.6h-4.7v-7.3h4.7v-10.2h8.5v10.2h10v7.3h-10v18.2
		c0,3.1,1.5,4.6,4.6,4.6c1.8,0,3.6-0.4,5.3-1.3v7C280.1,365,277.5,365.6,274.7,365.6z"/>
</g>
<g>
	<path class="st0" d="M306.3,365.8c-5.6,0-10.3-1.9-14.1-5.6c-3.8-3.8-5.6-8.3-5.6-13.7c0-5.4,1.9-10,5.7-13.8
		c3.8-3.8,8.5-5.7,14.2-5.7s10.3,1.9,14.1,5.6c3.8,3.8,5.7,8.4,5.7,13.8s-1.9,9.9-5.7,13.7C316.7,363.9,312,365.8,306.3,365.8z
		 M306.5,358.4c3.4,0,6.1-1.2,8.2-3.5s3.1-5.1,3.1-8.5c0-3.3-1.1-6.2-3.2-8.5c-2.2-2.3-4.9-3.5-8.2-3.5c-3.3,0-6,1.2-8.1,3.5
		s-3.1,5.1-3.1,8.5c0,3.3,1.1,6.1,3.2,8.5S303.2,358.4,306.5,358.4z"/>
</g>
<g>
	<path class="st1" d="M353.2,365.7c-7.8,0-14.7-2.6-20.6-7.9l5.2-6.2c4.9,4.3,10.1,6.4,15.6,6.4c2.7,0,4.8-0.6,6.4-1.7
		c1.6-1.2,2.4-2.7,2.4-4.6c0-1.8-0.8-3.3-2.3-4.4s-4.5-2.2-8.9-3.2c-5.7-1.4-9.9-3.1-12.5-5.2s-3.9-5.3-3.9-9.6
		c0-4.2,1.6-7.7,4.7-10.3s7.2-4,12.1-4c6.8,0,12.7,2.1,17.9,6.2l-4.6,6.6c-4.6-3.4-9-5.1-13.4-5.1c-2.5,0-4.5,0.6-5.9,1.7
		s-2.1,2.6-2.1,4.3c0,1.9,0.8,3.4,2.4,4.5s4.7,2.1,9.3,3.3c5.4,1.3,9.5,3.1,12,5.3c2.6,2.2,3.8,5.3,3.8,9.3c0,4.6-1.6,8.1-4.9,10.8
		C362.7,364.4,358.4,365.7,353.2,365.7z"/>
	<path class="st1" d="M380,365v-51.4h8.5v20c3-4.4,6.8-6.6,11.6-6.6c4.1,0,7.4,1.3,9.7,3.9c2.3,2.6,3.5,6.1,3.5,10.4V365h-8.5v-21.1
		c0-2.9-0.7-5.2-2.1-6.7c-1.4-1.6-3.3-2.4-5.9-2.4c-2.5,0-4.5,0.8-6.1,2.5c-1.5,1.6-2.3,3.9-2.3,6.8v21L380,365L380,365z"/>
	<path class="st1" d="M423.8,322.1V314h9.2v8.1H423.8z M424.2,365v-37.2h8.5V365H424.2z"/>
	<path class="st1" d="M443.8,376.3v-48.5h8.5v6.2c3.3-4.6,7.5-7,12.6-7c4.7,0,8.8,1.8,12.2,5.2c3.4,3.5,5.1,8.2,5.1,14.2
		c0,5.9-1.7,10.6-5.1,14.1s-7.5,5.2-12.2,5.2c-5.1,0-9.3-2.2-12.6-6.6v17h-8.5V376.3z M463,358.4c3,0,5.5-1.1,7.6-3.3
		c2-2.2,3.1-5.1,3.1-8.7c0-3.5-1-6.4-3.1-8.6s-4.6-3.3-7.5-3.3s-5.5,1.1-7.6,3.4s-3.2,5.1-3.2,8.7c0,3.5,1.1,6.3,3.2,8.6
		C457.5,357.2,460,358.4,463,358.4z"/>
	<path class="st1" d="M491,376.3v-48.5h8.5v6.2c3.3-4.6,7.5-7,12.6-7c4.7,0,8.8,1.8,12.2,5.2c3.4,3.5,5.1,8.2,5.1,14.2
		c0,5.9-1.7,10.6-5.1,14.1c-3.4,3.5-7.5,5.2-12.2,5.2c-5.1,0-9.3-2.2-12.6-6.6v17H491V376.3z M510.2,358.4c3,0,5.5-1.1,7.6-3.3
		c2-2.2,3.1-5.1,3.1-8.7c0-3.5-1-6.4-3.1-8.6s-4.6-3.3-7.5-3.3s-5.5,1.1-7.6,3.4s-3.2,5.1-3.2,8.7c0,3.5,1.1,6.3,3.2,8.6
		C504.7,357.2,507.2,358.4,510.2,358.4z"/>
	<path class="st1" d="M538.4,322.1V314h9.2v8.1H538.4z M538.7,365v-37.2h8.5V365H538.7z"/>
	<path class="st1" d="M558.4,365v-37.2h8.5v5.8c3-4.4,6.8-6.6,11.6-6.6c4.1,0,7.4,1.3,9.7,3.9s3.5,6.1,3.5,10.4V365h-8.5v-21.1
		c0-2.9-0.7-5.2-2.1-6.7c-1.4-1.6-3.3-2.4-5.9-2.4c-2.5,0-4.5,0.8-6.1,2.5c-1.5,1.6-2.3,3.9-2.3,6.8v21L558.4,365L558.4,365z"/>
	<path class="st1" d="M618.6,376.4c-6.2,0-11.7-1.5-16.6-4.4l3.2-6.4c4.2,2.6,8.6,3.9,13.2,3.9c3.8,0,6.7-1,8.7-2.9s3-4.8,3-8.5
		v-2.9c-3.5,4.6-7.9,6.8-13.1,6.8c-4.6,0-8.6-1.6-11.9-4.8c-3.3-3.2-5-7.4-5-12.8c0-5.3,1.7-9.5,5-12.7c3.4-3.2,7.3-4.8,11.9-4.8
		c5.2,0,9.5,2.1,13,6.3v-5.6h8.5v29.6c0,6.2-1.6,10.9-4.7,14C630.6,374.7,625.5,376.4,618.6,376.4z M619.3,354.8c3,0,5.6-1,7.7-2.9
		c2.1-1.9,3.2-4.4,3.2-7.4s-1.1-5.5-3.2-7.4c-2.1-1.9-4.7-2.9-7.7-2.9s-5.5,1-7.5,2.9s-3,4.4-3,7.5c0,3,1,5.5,3.1,7.4
		C613.9,353.9,616.4,354.8,619.3,354.8z"/>
</g>
<polygon class="st1" points="231.1,161 231.1,201.1 296.6,177.3 296.8,136.7 "/>
<polygon class="st1" points="308.1,133.2 308.1,173.3 373.5,149.4 373.7,108.9 "/>
<polygon class="st1" points="385,104.7 385,144.8 450.4,121 450.6,80.5 "/>
<polygon class="st1" points="235.1,107 235.1,147.1 300.6,123.3 300.8,82.7 "/>
<polygon class="st1" points="312.1,79.2 312.1,119.3 377.5,95.4 377.7,54.9 "/>
<polygon class="st1" points="385,50.7 385,90.8 450.4,67 450.6,26.5 "/>
<polygon class="st1" points="231.1,52.1 231.1,92.2 296.6,68.4 296.8,27.8 "/>
<polygon class="st1" points="308.1,24.3 308.1,64.4 373.5,40.5 373.7,0 "/>
<polygon class="st0" points="121.5,172.4 135.7,172.4 135.7,194.1 121.5,194.1 "/>
<polygon class="st0" points="141.3,172.4 155.5,172.4 155.5,194.1 141.3,194.1 "/>
<polygon class="st0" points="161.2,172.4 175.4,172.4 175.4,194.1 161.2,194.1 "/>
<polygon class="st0" points="181,172.4 195.2,172.4 195.2,194.1 181,194.1 "/>
<polygon class="st0" points="121.5,199.8 135.7,199.8 135.7,236.2 121.5,241.3 "/>
<path class="st0" d="M141.3,199.8h14.2v29.1l-14.2,5.2V199.8L141.3,199.8z M147,243.4l8.5-3.1l0,0"/>
<path class="st0" d="M161.2,199.8h14.2v21.9l-14.2,5.2V199.8L161.2,199.8z"/>
<polygon class="st0" points="181,199.8 195.2,199.8 195.2,214.5 181,219.7 "/>
<path class="st2" d="M619.4,79.6c-16.9,5.6-34.7,89.9-34.4,154.9C569,185.8,592.3,90.8,619.4,79.6L619.4,79.6z"/>
<polygon class="st2" points="137.1,260.5 383.9,171.1 382.3,175.3 132,265.9 "/>
</svg>
