<svg width="251" height="156" viewBox="0 0 251 156" fill="none" xmlns="http://www.w3.org/2000/svg">
<g clip-path="url(#clip0_1101_227)">
<path d="M476.5 159.95H8.5C3.8 159.95 0 156.15 0 151.45V-149.35C0 -154.05 3.8 -157.85 8.5 -157.85H476.6C481.3 -157.85 485.1 -154.05 485.1 -149.35V151.45C485 156.15 481.2 159.95 476.5 159.95Z" fill="#F5F5F5"/>
<path d="M376.2 -157.75H108.7V159.95H376.2V-157.75Z" fill="#F5F5F5"/>
<path d="M4.39512 -4.46982C2.01448 -4.46982 0.0996094 -2.55495 0.0996094 -0.174308V155.603C0.0996094 157.983 2.01448 159.898 4.39512 159.898H56.3036V-4.52158L4.39512 -4.46982Z" fill="#FF4B55"/>
<path d="M246.755 -4.46982H194.795V159.95H246.703C249.084 159.95 250.999 158.035 250.999 155.655V-0.122551C251.051 -2.55495 249.136 -4.46982 246.755 -4.46982Z" fill="#FF4B55"/>
<path d="M151.84 96.7076L177.509 82.0097L171.609 79.0598C169.953 78.2318 169.022 76.4204 169.229 74.609L171.144 60.2216L160.275 63.3786C157.895 64.0514 155.411 62.6023 154.841 60.1699L153.806 55.4604L143.611 67.4153C142.162 69.0714 139.471 67.8294 139.833 65.6557L144.18 40.2967L137.504 42.1598C135.537 42.6773 133.467 41.7975 132.536 40.0379L125.497 26.8926L118.562 40.0897C117.579 41.901 115.561 42.7291 113.594 42.2115L106.918 40.4002L111.265 65.7592C111.627 67.9329 108.936 69.175 107.487 67.5188L97.2918 55.5639L96.2568 60.2734C95.7392 62.7058 93.2551 64.2066 90.8227 63.4821L79.9545 60.3252L81.8694 74.7125C82.0764 76.5239 81.1966 78.3353 79.4887 79.1633L73.5889 82.1132L99.2584 96.8111C101.898 98.3637 103.088 101.572 102.001 104.419L99.8277 110.319L121.823 108.404C123.065 108.3 124.1 109.284 124.048 110.474L123.375 134.022H127.671L126.998 110.474C126.946 109.232 127.981 108.3 129.224 108.404L151.27 110.319L149.097 104.419C148.01 101.469 149.148 98.2602 151.84 96.7076Z" fill="#FF4B55"/>
</g>
<defs>
<clipPath id="clip0_1101_227">
<rect width="251" height="156" fill="white"/>
</clipPath>
</defs>
</svg>
